<?xml version="1.0" standalone="no"?>
<!DOCTYPE svg PUBLIC "-//W3C//DTD SVG 20010904//EN"
 "http://www.w3.org/TR/2001/REC-SVG-20010904/DTD/svg10.dtd">
<svg version="1.0" xmlns="http://www.w3.org/2000/svg"
 width="500.000000pt" height="500.000000pt" viewBox="0 0 500.000000 500.000000"
 preserveAspectRatio="xMidYMid meet">
<metadata>
Created by potrace 1.14, written by Peter Selinger 2001-2017
</metadata>
<g transform="translate(0.000000,500.000000) scale(0.100000,-0.100000)"
fill="#000000" stroke="none">
<path d="M2569 4296 c-2 -2 -51 -6 -109 -10 -58 -3 -116 -8 -130 -11 -14 -3
-43 -7 -65 -10 -22 -2 -54 -6 -70 -9 -17 -2 -66 -10 -110 -16 -469 -68 -859
-214 -1069 -400 -198 -175 -306 -381 -350 -670 -11 -70 -14 -158 -11 -330 2
-129 6 -248 8 -265 3 -16 8 -64 12 -105 3 -41 8 -88 10 -105 2 -16 7 -52 10
-80 3 -27 8 -59 10 -70 2 -11 6 -42 9 -70 9 -81 17 -135 33 -225 8 -47 17 -98
19 -115 2 -16 7 -37 10 -47 2 -9 6 -25 8 -35 43 -215 131 -444 227 -584 150
-221 344 -333 684 -394 58 -10 211 -19 330 -19 119 0 375 13 385 19 3 2 37 6
75 10 39 3 86 8 105 10 19 3 55 7 80 10 25 4 56 8 70 10 24 3 88 11 156 19 41
5 184 27 209 32 11 2 38 7 60 10 31 4 217 44 270 58 6 2 24 6 40 10 129 33
317 117 424 190 109 75 111 77 160 129 85 91 158 206 214 337 37 86 80 265 92
380 3 36 8 83 11 105 11 91 5 400 -11 550 -1 17 -6 62 -9 100 -4 39 -9 81 -11
95 -3 14 -7 48 -10 75 -3 28 -8 64 -10 80 -3 17 -7 48 -10 70 -97 670 -322
1010 -778 1174 -69 25 -245 68 -314 76 -26 4 -59 9 -73 12 -29 6 -574 15 -581
9z"/>
</g>
</svg>
