<?xml version="1.0" standalone="no"?>
<!DOCTYPE svg PUBLIC "-//W3C//DTD SVG 20010904//EN"
 "http://www.w3.org/TR/2001/REC-SVG-20010904/DTD/svg10.dtd">
<svg version="1.0" xmlns="http://www.w3.org/2000/svg"
 width="300.000000pt" height="300.000000pt" viewBox="0 0 300.000000 300.000000"
 preserveAspectRatio="xMidYMid meet">
<metadata>
Created by potrace 1.11, written by Peter Selinger 2001-2013
</metadata>
<g transform="translate(0.000000,300.000000) scale(0.100000,-0.100000)"
fill="#000000" stroke="none">
<path d="M1445 2909 c-749 -76 -1156 -259 -1320 -592 -115 -234 -130 -491 -59
-1049 66 -526 152 -776 329 -953 235 -236 580 -278 1385 -169 455 61 690 138
875 285 181 143 286 377 316 698 13 147 7 330 -22 576 -46 411 -108 637 -221
812 -143 221 -368 341 -725 388 -122 16 -419 18 -558 4z m419 -459 c103 -26
161 -56 202 -104 105 -122 16 -326 -141 -326 -27 0 -84 9 -125 20 -200 53
-465 1 -611 -118 -132 -107 -186 -253 -176 -472 13 -267 116 -492 261 -568 45
-24 62 -27 141 -27 111 1 175 26 236 92 68 74 104 175 124 346 l7 59 -34 -7
c-18 -4 -83 -29 -144 -56 -120 -53 -154 -58 -212 -33 -109 45 -163 175 -113
273 56 109 233 195 486 237 198 32 450 5 529 -57 66 -52 94 -180 58 -261 -21
-48 -69 -91 -115 -102 -28 -7 -29 -8 -22 -59 15 -103 54 -256 94 -362 24 -63
41 -126 41 -149 -1 -88 -81 -171 -176 -182 -69 -9 -118 9 -171 63 l-45 44 -41
-47 c-111 -127 -329 -214 -534 -214 -77 0 -191 22 -263 50 -126 50 -285 188
-363 316 -155 256 -218 665 -147 954 25 105 104 264 170 347 151 188 415 322
715 362 102 14 277 5 369 -19z"/>
</g>
</svg>
